# xmcd
#
# Track frame offsets:
#	150
#	15625
#	34980
#	52365
#	68217
#	84127
#	103525
#	121505
#	144857
#	160985
#	174512
#
# Disc length: 2575 seconds
#
# Revision: 0
# Processed by: cddbd v1.5.2PL0 Copyright (c) Steve Scherf et al.
# Submitted via: audiograbber 1.83.01
#
DISCID=870a0d0b
DTITLE=Olivia Newton-John - Back With A Heart
DYEAR=1998
DGENRE=Country
TTITLE0=Precious Love
TTITLE1=Closer To Me
TTITLE2=Fight For Our Love
TTITLE3=Spinning His Wheels
TTITLE4=Under My Skin
TTITLE5=Love Is A Gift
TTITLE6=I Don't Wanna Say Goodnight
TTITLE7=Don't Say That
TTITLE8=Attention
TTITLE9=Back With A Heart
TTITLE10=I Honestly Love You
EXTD=\n\n\n
EXTT0=
EXTT1=
EXTT2=
EXTT3=
EXTT4=
EXTT5=
EXTT6=
EXTT7=
EXTT8=
EXTT9=
EXTT10=
PLAYORDER=
